<svg xmlns="http://www.w3.org/2000/svg" width="64" height="64" viewBox="0 0 64 64">
  <g transform="matrix(0.086154,0,0,0.086154,-0.049231,16.793846)" fill="#FFFFFF" stroke="none">
    <path d="M353.00,203.00 L354.00,214.00 L361.00,205.00 L390.00,206.00 L345.00,261.00 L346.00,267.00 L350.00,267.00 L353.00,258.00 L403.00,275.00 L423.00,275.00 L436.00,270.00 L401.00,269.00 L359.00,252.00 L399.00,202.00 Z" />
    <path d="M697.00,238.00 L587.00,192.00 L519.00,134.00 L513.00,134.00 L497.00,156.00 L477.00,150.00 L413.00,98.00 L375.00,54.00 L326.00,129.00 L287.00,177.00 L274.00,176.00 L239.00,161.00 L200.00,127.00 L158.00,190.00 L47.00,299.00 L141.00,231.00 L181.00,182.00 L200.00,188.00 L204.00,172.00 L208.00,169.00 L216.00,180.00 L221.00,163.00 L260.00,187.00 L283.00,187.00 L321.00,166.00 L365.00,113.00 L369.00,132.00 L378.00,118.00 L387.00,113.00 L408.00,142.00 L412.00,140.00 L415.00,123.00 L437.00,145.00 L486.00,173.00 L499.00,191.00 L506.00,188.00 L518.00,167.00 L535.00,182.00 L540.00,171.00 L643.00,230.00 L679.00,241.00 L697.00,241.00 Z" />
  </g>
</svg>
